<?xml version="1.0" encoding="UTF-8"?><svg id="Layer_2" xmlns="http://www.w3.org/2000/svg" viewBox="0 0 494.87 371.25"><defs><style>.cls-1{fill:#51c135;}.cls-1,.cls-2{stroke-width:0px;}.cls-2{fill:#3e6a33;}</style></defs><g id="Layer_1-2"><rect class="cls-2" width="494.87" height="371.25"/><path class="cls-1" d="m237.95,327.35c-34.17,0-66.74-6.91-97.4-21.88-16.32-7.96-30.45-18.93-41.16-33.91-9.25-12.93-13.55-27.31-13.25-43.16.07-3.91,1.81-6.4,5.52-7.43,2.03-.56,4.12-1.14,6.21-1.23,21.17-.87,42.34-1.78,63.52-2.39,16.45-.47,32.92-.55,49.38-.78,18.58-.26,37.16-.43,55.74-.78,22.69-.42,45.37-.97,68.06-1.49,21.31-.48,42.63-1.01,63.94-1.45,6.18-.13,6.44.3,8.22,6.3,4.04,13.66-.43,25.51-7.62,36.81-11.59,18.22-27.51,31.75-46.05,42.42-26.22,15.1-54.47,23.94-84.55,26.86-10.16.99-20.37,1.42-30.56,2.1Z"/><path class="cls-1" d="m183.41,119.68c0,12.09.05,24.18-.03,36.27-.02,3.23-.4,6.46-.75,9.67-.32,2.89-1.98,4.86-4.78,5.61-8.79,2.35-17.7,2.85-26.62,1.05-4.54-.92-6.66-4.01-6.6-9.53.1-8.96.47-17.92.84-26.88.36-8.7.88-17.4,1.31-26.1.47-9.57.78-19.15,1.42-28.71.52-7.77,3.99-11.24,11.72-11.72,5.22-.32,10.47-.25,15.7-.05,4.09.15,6.35,2.25,7.15,6.35.45,2.3.65,4.69.66,7.04.06,12.34.03,24.68.03,37.02h-.06Z"/><path class="cls-1" d="m341.51,106.49c0,18.43.04,36.87-.02,55.3-.02,6.14-2.3,9.33-8.34,9.99-7.01.77-14.14.93-21.19.66-5.74-.22-8.63-3.51-8.59-9.29.06-10.08.5-20.16.86-30.24.39-10.82.87-21.64,1.3-32.46.27-6.59.42-13.19.81-19.77.45-7.62,2.81-10.52,10.36-11.06,6.17-.44,12.44.04,18.62.6,3.29.3,5.92,2.44,6.18,6.05.41,5.57-.03,11.19.09,16.78.1,4.48-.08,8.95-.08,13.43-.22,0,.22,0,0,0Z"/></g></svg>